PathFileType	4	(X/Y/Z)	Walk7.trc
DataRate	CameraRate	NumFrames	NumMarkers	Units	OrigDataRate	OrigDataStartFrame	OrigNumFrames
200.000000	200.000000	6	59	mm	200.000000	406	495
Frame#	Times		LFHD		RFHD		C7		CLAV		RBack		RASI		RACR1		RUA1		RElbowM		RFA1		RWRR		RWRU		LACR1		LUA1		LFA1		LWRR		LWRU		RTH1		RTH3		LTH2		LTH4		LASI		LTH3		RTB1		RTB3		RCAR		LTB2		LCAR		T10		RPSI		LLFC		LBHD		LToe		RBHD		STRN		RElbow		RTB4		RTH2		LTB1		RTB2		LTB4		LElbow		LPSI		LElbowM		LTH1		LMMAL		LMT1		RTH4		LTB3		LCAL		LMT5		RLFC		LLMAL		RMT1		RToe		RCAL		RMMAL		RLMAL		RMT5
			X1	Y1	Z1	X2	Y2	Z2	X3	Y3	Z3	X4	Y4	Z4	X5	Y5	Z5	X6	Y6	Z6	X7	Y7	Z7	X8	Y8	Z8	X9	Y9	Z9	X10	Y10	Z10	X11	Y11	Z11	X12	Y12	Z12	X13	Y13	Z13	X14	Y14	Z14	X15	Y15	Z15	X16	Y16	Z16	X17	Y17	Z17	X18	Y18	Z18	X19	Y19	Z19	X20	Y20	Z20	X21	Y21	Z21	X22	Y22	Z22	X23	Y23	Z23	X24	Y24	Z24	X25	Y25	Z25	X26	Y26	Z26	X27	Y27	Z27	X28	Y28	Z28	X29	Y29	Z29	X30	Y30	Z30	X31	Y31	Z31	X32	Y32	Z32	X33	Y33	Z33	X34	Y34	Z34	X35	Y35	Z35	X36	Y36	Z36	X37	Y37	Z37	X38	Y38	Z38	X39	Y39	Z39	X40	Y40	Z40	X41	Y41	Z41	X42	Y42	Z42	X43	Y43	Z43	X44	Y44	Z44	X45	Y45	Z45	X46	Y46	Z46	X47	Y47	Z47	X48	Y48	Z48	X49	Y49	Z49	X50	Y50	Z50	X51	Y51	Z51	X52	Y52	Z52	X53	Y53	Z53	X54	Y54	Z54	X55	Y55	Z55	X56	Y56	Z56	X57	Y57	Z57	X58	Y58	Z58	X59	Y59	Z59

406	2.03	380.39	1425.1	-21.792	373.75	1413.2	73.87	201.27	1266.8	15.299	338.93	1180.1	7.3719	156.39	1145.3	135.8	325.4	829.65	176	276.1	1209.4	190.54	290.29	1068.4	271.25	233.98	906.63	239.04	359.85	832.34	306.89	389.1	738.08	268.8	354.6	731.36	332.17	250.9	1209.5	-175.96	249.75	1047.5	-251.23	256.12	842.1	-313.67	284.29	728.75	-306.95	234.72	735.48	-345.55	241.5	635.58	214.96	208.19	474.24	162.2	341.16	587.66	-158.42	293.48	564.37	-184.72	306.2	816.65	-154.49	313.11	484.24	-153.77	185.97	282.72	82.942	125.48	123.28	55.984	410.42	686.37	320.88	404.38	233.73	-109.44	271.35	684.8	-356.97	111.67	1068.7	29.167	67.713	850.99	70.266	361.12	405.67	-117.73	247.68	1357	-49.172	588.13	113.18	-68.086	240.21	1349.1	83.565	389.41	1073.2	5.7039	288.22	942.32	305.61	153.38	202.58	69.578	279.22	550.06	171.78	412.51	325.67	-55.899	120.15	208.37	121.11	429.04	239.46	-52.967	211.12	933.57	-265.55	56.834	843.49	-33.495	194.67	905.36	-196.51	271.26	645.71	-205.87	447.34	94.253	-6.5487	555.42	93.383	-36.115	222.57	555.44	190.87	451.58	159.2	-52.582	394.84	40.075	-31.594	515.34	58.385	-108.56	162.2	392.57	138.42	423.6	69.861	-82.033	165.3	29.099	14.915	225.27	28.565	49.828	2.3747	57.65	45.868	75.012	81.906	6.5742	65.323	71.719	89.931	143.37	24.528	107.43
407	2.035	385.75	1424.3	-22.292	379.11	1412.4	73.378	206.55	1266	14.813	344.36	1179.5	7.1219	161.67	1144.4	135.25	331.12	828.92	176.19	281.19	1208.8	190.18	295.43	1067.8	270.97	239.38	906	238.86	365.18	831.9	307.02	394.63	737.66	268.95	360.03	730.93	332.27	256.44	1208.7	-176.38	255.65	1046.7	-251.63	261.15	841.42	-314.43	288.79	727.86	-308.26	239.01	734.99	-346.52	246.36	635.24	214.86	211.74	474.15	162.05	346.12	585.89	-158.24	298.38	562.91	-184.73	311.89	815.43	-154.62	317.56	482.64	-153.8	188.4	282.43	82.802	126.41	123.57	55.813	415.87	685.95	321.07	412.93	233.85	-109.53	275.19	684.02	-358.3	117.15	1067.8	28.59	73.276	850.31	69.337	366.19	404.75	-117.52	253.02	1356.2	-49.629	599.37	116.21	-68.036	245.55	1348.4	83.119	395.08	1072.7	5.983	293.45	941.83	305.51	155.05	202.6	69.408	283.35	549.42	171.66	418.99	325.83	-55.582	121.82	208.71	120.91	437.28	239.88	-52.94	216.88	932.83	-265.89	62.82	842.4	-34.406	200.49	904.49	-196.9	276.62	644.39	-205.84	458.35	94.808	-6.9995	566.76	95.924	-36.249	226.77	555.17	190.77	461.43	159.98	-52.8	406.92	39.584	-32.324	527.6	60.187	-108.81	165.51	392.59	138.18	435.33	70.148	-82.611	165.44	29.118	14.847	225.3	28.51	49.949	2.7048	59.056	45.561	75.628	82.663	6.3382	65.741	72.574	89.693	143.28	24.613	107.14
408	2.04	391.1	1423.5	-22.813	384.46	1411.7	72.866	211.82	1265.2	14.3	349.79	1178.8	6.8516	166.95	1143.5	134.67	336.82	828.26	176.41	286.26	1208.1	189.79	300.58	1067.3	270.65	244.76	905.35	238.67	370.49	831.43	307.11	400.1	737.2	269.09	365.4	730.48	332.36	261.98	1207.8	-176.82	261.55	1045.8	-252.07	266.28	840.72	-315.2	293.41	726.97	-309.53	243.45	734.49	-347.5	251.3	634.91	214.77	215.38	474.07	161.93	351.14	584.24	-158.07	303.34	561.51	-184.77	317.59	814.18	-154.78	322.18	481.13	-153.86	190.92	282.11	82.685	127.37	123.88	55.688	421.27	685.5	321.27	421.1	233.88	-109.56	279.18	683.23	-359.59	122.64	1066.9	27.976	78.87	849.6	68.395	371.38	403.87	-117.33	258.34	1355.5	-50.11	609.81	118.7	-67.844	250.88	1347.7	82.648	400.76	1072.1	6.255	298.68	941.32	305.38	156.79	202.63	69.281	287.56	548.79	171.56	425.39	325.86	-55.28	123.58	209.05	120.76	445.16	240.15	-52.869	222.69	932.06	-266.27	68.848	841.32	-35.325	206.35	903.59	-197.32	281.96	643.11	-205.81	468.57	95.257	-7.32	577.24	98.048	-36.232	231.05	554.89	190.69	470.69	160.6	-52.918	418.07	39.175	-32.907	538.94	61.659	-108.89	168.95	392.59	137.99	446.2	70.383	-83.038	165.56	29.144	14.792	225.32	28.456	50.042	3.0517	60.52	45.349	76.242	83.456	6.178	66.192	73.461	89.528	143.22	24.693	106.9
409	2.045	396.45	1422.7	-23.355	389.81	1411	72.333	217.08	1264.3	13.76	355.22	1178.2	6.5592	172.22	1142.6	134.05	342.5	827.65	176.66	291.31	1207.4	189.38	305.74	1066.6	270.3	250.1	904.7	238.45	375.76	830.93	307.17	405.51	736.69	269.22	370.73	730.01	332.44	267.51	1206.9	-177.29	267.46	1045	-252.54	271.51	840	-315.97	298.14	726.07	-310.77	248.03	733.96	-348.48	256.34	634.58	214.69	219.14	473.97	161.85	356.24	582.72	-157.93	308.4	560.19	-184.83	323.3	812.91	-154.95	327.01	479.71	-153.93	193.52	281.77	82.595	128.37	124.2	55.616	426.6	685.01	321.46	428.89	233.79	-109.52	283.31	682.42	-360.84	128.14	1065.9	27.328	84.498	848.89	67.448	376.71	403.03	-117.16	263.67	1354.7	-50.612	619.46	120.6	-67.496	256.2	1347	82.151	406.45	1071.6	6.5139	303.9	940.8	305.22	158.59	202.65	69.2	291.88	548.16	171.49	431.7	325.74	-54.987	125.43	209.39	120.67	452.69	240.26	-52.747	228.54	931.27	-266.67	74.913	840.26	-36.246	212.27	902.66	-197.77	287.32	641.89	-205.77	477.99	95.555	-7.5035	586.85	99.703	-36.055	235.45	554.61	190.64	479.35	161.01	-52.926	428.28	38.81	-33.338	549.32	62.745	-108.77	172.53	392.58	137.84	456.18	70.525	-83.309	165.66	29.179	14.753	225.34	28.403	50.103	3.4179	62.048	45.24	76.859	84.292	6.0982	66.677	74.382	89.441	143.18	24.764	106.69
410	2.05	401.78	1421.9	-23.914	395.14	1410.2	71.782	222.33	1263.5	13.192	360.66	1177.5	6.2428	177.5	1141.6	133.39	348.16	827.1	176.92	296.36	1206.7	188.95	310.92	1066	269.93	255.42	904.04	238.21	381	830.41	307.2	410.86	736.15	269.34	376.01	729.52	332.52	273.03	1206.1	-177.78	273.38	1044.1	-253.04	276.84	839.26	-316.73	302.99	725.16	-311.97	252.75	733.41	-349.45	261.48	634.25	214.6	223.04	473.86	161.81	361.45	581.35	-157.8	313.57	558.95	-184.89	329.05	811.64	-155.15	332.06	478.42	-153.99	196.22	281.4	82.536	129.4	124.55	55.6	431.87	684.5	321.65	436.3	233.56	-109.42	287.6	681.58	-362.06	133.66	1064.9	26.645	90.162	848.18	66.503	382.17	402.23	-116.99	268.99	1353.9	-51.137	628.33	121.86	-66.984	261.51	1346.3	81.63	412.15	1071.1	6.7537	309.12	940.27	305.02	160.45	202.68	69.171	296.33	547.53	171.45	437.94	325.48	-54.694	127.38	209.73	120.65	459.88	240.2	-52.565	234.43	930.46	-267.11	81.014	839.21	-37.16	218.24	901.72	-198.24	292.7	640.73	-205.74	486.6	95.668	-7.5459	595.6	100.85	-35.711	239.97	554.33	190.61	487.41	161.2	-52.819	437.53	38.456	-33.618	558.77	63.405	-108.47	176.26	392.55	137.73	465.28	70.538	-83.423	165.73	29.223	14.73	225.36	28.35	50.13	3.8071	63.648	45.236	77.481	85.176	6.1016	67.199	75.34	89.436	143.17	24.825	106.53
411	2.055	407.1	1421.2	-24.491	400.45	1409.5	71.213	227.59	1262.6	12.594	366.11	1176.9	5.9005	182.78	1140.7	132.7	353.79	826.63	177.2	301.41	1206	188.49	316.11	1065.4	269.53	260.7	903.38	237.96	386.21	829.87	307.18	416.16	735.57	269.44	381.23	729.02	332.59	278.56	1205.2	-178.31	279.29	1043.2	-253.57	282.26	838.51	-317.5	307.95	724.25	-313.13	257.63	732.84	-350.42	266.73	633.92	214.52	227.1	473.72	161.81	366.8	580.14	-157.7	318.87	557.81	-184.94	334.82	810.37	-155.38	337.35	477.25	-154.03	199.02	281.01	82.511	130.47	124.91	55.643	437.07	683.95	321.84	443.33	233.19	-109.24	292.05	680.73	-363.24	139.19	1063.9	25.929	95.864	847.46	65.569	387.76	401.47	-116.83	274.31	1353.1	-51.684	636.45	122.46	-66.302	266.82	1345.5	81.086	417.84	1070.6	6.9685	314.33	939.73	304.8	162.39	202.7	69.196	300.93	546.91	171.42	444.1	325.07	-54.393	129.42	210.07	120.7	466.72	239.95	-52.318	240.37	929.63	-267.57	87.149	838.19	-38.06	224.25	900.76	-198.73	298.13	639.63	-205.72	494.41	95.571	-7.4456	603.51	101.45	-35.197	244.63	554.04	190.6	494.88	161.16	-52.593	445.83	38.092	-33.754	567.29	63.61	-107.99	180.14	392.5	137.68	473.51	70.4	-83.38	165.79	29.277	14.725	225.36	28.298	50.123	4.224	65.327	45.341	78.113	86.115	6.1889	67.764	76.338	89.514	143.19	24.873	106.41
